<svg xmlns="http://www.w3.org/2000/svg" width="32" height="32" viewBox="0 0 32 32">
    <g fill="none" fill-rule="evenodd">
        <path fill="#3B588B" d="M31.69 15.845c0 8.751-7.094 15.845-15.845 15.845C7.094 31.69 0 24.596 0 15.845 0 7.095 7.094 0 15.845 0c8.75 0 15.845 7.094 15.845 15.845"/>
        <path fill="#FFFFFE" d="M13.542 16.063v7.735c0 .112.085.202.19.202h2.706c.104 0 .189-.09.189-.202v-7.861h1.961c.099 0 .181-.08.19-.185l.188-2.368c.01-.118-.078-.219-.189-.219h-2.15v-1.68c0-.394.3-.713.672-.713h1.511c.105 0 .19-.09.19-.202V8.202C19 8.09 18.915 8 18.81 8h-2.554c-1.498 0-2.714 1.29-2.714 2.882v2.283H12.19c-.105 0-.19.09-.19.202v2.368c0 .112.085.202.19.202h1.352v.126"/>
    </g>
</svg>
