<svg xmlns="http://www.w3.org/2000/svg" width="32" height="32" viewBox="0 0 32 32">
    <g fill="none" fill-rule="evenodd">
        <path fill="#E1306C" d="M31.69 15.845c0 8.75-7.094 15.844-15.845 15.844C7.095 31.69 0 24.596 0 15.845S7.094 0 15.845 0c8.75 0 15.845 7.094 15.845 15.845"/>
        <path fill="#FFF" d="M19.017 23.748H12.73A4.735 4.735 0 0 1 8 19.018V12.73A4.735 4.735 0 0 1 12.73 8h6.287a4.736 4.736 0 0 1 4.73 4.73v6.287a4.736 4.736 0 0 1-4.73 4.73z"/>
        <path fill="#E1306C" d="M15.938 18.358a2.487 2.487 0 0 1-2.484-2.484 2.487 2.487 0 0 1 2.484-2.484 2.487 2.487 0 0 1 2.485 2.484 2.487 2.487 0 0 1-2.485 2.484zm0-6.362a3.882 3.882 0 0 0-3.878 3.878 3.882 3.882 0 0 0 3.878 3.878 3.883 3.883 0 0 0 3.879-3.878 3.883 3.883 0 0 0-3.879-3.878zM20.043 10.812a.923.923 0 1 0 0 1.846.923.923 0 0 0 0-1.846"/>
    </g>
</svg>
