<svg xmlns="http://www.w3.org/2000/svg" xmlns:xlink="http://www.w3.org/1999/xlink" version="1.1" width="1071.7920000000001" height="65.2320000000001" viewBox="13.82399999999995 0 1071.7920000000001 65.2320000000001" xml:space="preserve">
<desc>Created with Fabric.js 5.2.4</desc>
<defs>
</defs>
<g transform="matrix(1 0 0 1 540 540)" id="870acbd1-3a59-4946-99d9-23e59e65b36e">
</g>
<g transform="matrix(1 0 0 1 540 540)" id="5ab804a8-1299-4248-bcad-ddc0ec181c37">
<rect style="stroke: none; stroke-width: 1; stroke-dasharray: none; stroke-linecap: butt; stroke-dashoffset: 0; stroke-linejoin: miter; stroke-miterlimit: 4; fill: rgb(255,255,255); fill-rule: nonzero; opacity: 1; visibility: hidden;" vector-effect="non-scaling-stroke" x="-540" y="-540" rx="0" ry="0" width="1080" height="1080"></rect>
</g>
<g transform="matrix(0 0 0 0 0 0)">
<g style="">
</g>
</g>
<g transform="matrix(0 0 0 0 0 0)">
<g style="">
</g>
</g>
<g transform="matrix(2.54 0 0 1.16 313.32 28.68)">
<path style="stroke: none; stroke-width: 1; stroke-dasharray: none; stroke-linecap: butt; stroke-dashoffset: 0; stroke-linejoin: miter; stroke-miterlimit: 4; fill: rgb(150,29,29); fill-rule: evenodd; opacity: 1;" vector-effect="non-scaling-stroke" transform=" translate(-914.5, -26.5)" d="M 783 0 L 791.89764 0 C 819.24417 1.10859927 833.102751 29.3890911 862.021958 24.9472203 C 872.457213 23.3453567 881.141991 17.2742187 892.040535 17.1845342 C 918.124918 16.9752706 930.929205 46.8850296 955.263109 52.0692882 C 962.560526 53.6238184 970.221061 53.4195372 976.972548 50.0065462 C 982.895126 47.0145738 987.495453 42.0595088 991.482237 36.8777414 C 998.371459 27.9192629 1004.5069 18.2084315 1012.74341 10.3660259 C 1017.22354 6.10352405 1022.63024 2.14495274 1028.77068 0.84452843 C 1031.15474 0.338807866 1033.56384 0.124561715 1035.97795 0 L 1046 0" stroke-linecap="round"></path>
</g>
<g transform="matrix(1.22 0 0 1.19 985.27 27.15)">
<path style="stroke: none; stroke-width: 1; stroke-dasharray: none; stroke-linecap: butt; stroke-dashoffset: 0; stroke-linejoin: miter; stroke-miterlimit: 4; fill: rgb(150,29,29); fill-rule: evenodd; opacity: 1;" vector-effect="non-scaling-stroke" transform=" translate(-254.27, -23.06)" d="M 0 0 C 95.4453333 0 125.033412 46.1153684 167.983686 46.1153684 C 219.52502 46.1153684 251.974275 0 325.468863 0 C 379.156078 0 395.798588 25.9402105 419.957961 25.9402105 C 448.951216 25.9402105 467.20502 0 508.544 0" stroke-linecap="round"></path>
</g>
</svg>